PathFileType	4	(X/Y/Z)	Demo_SinglePerson_P1_0-412.trc
DataRate	CameraRate	NumFrames	NumMarkers	Units	OrigDataRate	OrigDataStartFrame	OrigNumFrames
29	29	4	22	m	29	360	412
Frame#	Time	Hip			RHip			RKnee			RAnkle			RBigToe			RSmallToe			RHeel			LHip			LKnee			LAnkle			LBigToe			LSmallToe			LHeel			Neck			Head			Nose			RShoulder			RElbow			RWrist			LShoulder			LElbow			LWrist			
		X1	Y1	Z1	X2	Y2	Z2	X3	Y3	Z3	X4	Y4	Z4	X5	Y5	Z5	X6	Y6	Z6	X7	Y7	Z7	X8	Y8	Z8	X9	Y9	Z9	X10	Y10	Z10	X11	Y11	Z11	X12	Y12	Z12	X13	Y13	Z13	X14	Y14	Z14	X15	Y15	Z15	X16	Y16	Z16	X17	Y17	Z17	X18	Y18	Z18	X19	Y19	Z19	X20	Y20	Z20	X21	Y21	Z21	X22	Y22	Z22	
360	12.413793103448276	4.484023215532358	-0.22083557369745388	-0.9622187363374016	4.619973673479202	-0.2959612744914492	-1.153995876701577	4.060389798593271	-0.6700769547006656	-0.9402415428169655	3.6734614311341596	-0.979092550039572	-0.7616027718515155	3.9355638772938177	-1.2936963959449295	-0.9484437086587201	4.050344885238541	-1.347918679533866	-1.0280980205942645	3.5556733091948773	-0.9675901843635994	-0.682966111671576	4.34628445101094	-0.1579492728993636	-0.7683535048786114	3.708135862604281	-0.47429033172508744	-0.5854801090338267	3.3313492605779707	-0.7246647890749196	-0.48850209523068605	3.1982293283387953	-0.7931947424883621	-0.4326909514463867	3.083016418995887	-0.7062474338918387	-0.34269348265505356	3.3304007978415644	-0.7862962390062906	-0.5075251777357402	5.459317441341829	0.3986390132426949	-1.2936136225854895	5.886669549693119	0.7067472214503943	-1.4957324550948499	5.686745673395014	0.5135052547157973	-1.4757264421499268	5.419003090676524	0.1995993486758245	-1.5253661251484452	5.1526638757434355	-0.11394682601858992	-1.5318956646392117	5.266190827579037	-0.17175585093817397	-1.7043442144422067	5.173264627455178	0.3620958170714594	-0.9030236628686201	4.620924171757602	0.14984495191754815	-0.559023431756811	4.830749948540299	0.24265521779535984	-0.6398874703964094
361	12.448275862068966	4.4819515341143665	-0.21403035281099045	-0.9534653503539813	4.623095822781282	-0.2920557836404125	-1.1536024159539326	4.061487755944662	-0.6660148745358334	-0.939230405747999	3.6714379395535928	-0.97376082839454	-0.7595752622004535	3.9109305592364314	-1.273837389076784	-0.9321791019781797	4.024946152001671	-1.3275647523377365	-1.011319790493727	3.5535328476244175	-0.9622689700324109	-0.6809158539881931	4.350415187021317	-0.15464155317905362	-0.7680777116682047	3.7038327331428245	-0.47388181202914414	-0.5823650662472335	3.3315112845826964	-0.7207764716137859	-0.48720729127447354	3.2149823097960293	-0.7941756409862556	-0.442521568901657	3.0829951642867592	-0.7024562285750887	-0.34135960431924617	3.3299068448685083	-0.7820561182220942	-0.5060302348349779	5.46105464488854	0.40507275350323324	-1.285227070272695	5.889176737381323	0.7135206224179651	-1.4872485936324709	5.685297491369804	0.5219203627342393	-1.4586362227017067	5.4119997896068	0.20143520891447367	-1.513623601442459	5.150053267511844	-0.1064001903451933	-1.5223038525564863	5.256102577790412	-0.16045677467774944	-1.6845056352809045	5.176188855466313	0.3678535816855791	-0.8951242411301512	4.623820506398039	0.15492540847519945	-0.5515243254442436	4.833971048059911	0.24789229194277718	-0.6322937197760224
362	12.482758620689655	4.482712645635428	-0.21488715759050675	-0.9550271553399945	4.6105199337787335	-0.2932370813745994	-1.1431354131326927	4.063892200208054	-0.6660491204502642	-0.9409840611962882	3.6631569105518706	-0.9594877717182657	-0.7521417741588705	3.8746316481342817	-1.2474023071503546	-0.9078441091358141	3.9873276047421546	-1.3003807035178927	-0.9860204708782935	3.542384204085828	-0.9523515309670973	-0.6724296144575149	4.343793662804191	-0.15896001603101642	-0.7673255473386574	3.699517543879613	-0.4698549754415768	-0.5766018615707611	3.336115149949507	-0.7211770699665994	-0.4900372743012498	3.2155117064638676	-0.7977432979325425	-0.44373444858809286	3.0831197611155305	-0.70575426744099	-0.3425782504881089	3.33450699227651	-0.7823272801613884	-0.5088221200409183	5.455441716586028	0.40428412997505964	-1.2775605287634089	5.876072066847765	0.7055524426525047	-1.4762321548496982	5.6792523518257845	0.5205824112752238	-1.4503537759928595	5.410138920805124	0.19932532988681206	-1.5137443913846562	5.143216481422389	-0.10462134656533631	-1.513161530464607	5.242123267791422	-0.15511118533263316	-1.6648832761580787	5.163800736565167	0.36265744298089037	-0.8862573831479484	4.620593498441491	0.15521293644091216	-0.5466114815962207	4.827982873109614	0.2493678933275048	-0.619762254763604
363	12.517241379310345	4.465313184915605	-0.21922439500188307	-0.9436845325848402	4.592873623844547	-0.2975345943482014	-1.1307271306478035	4.06272427311891	-0.6686026657578453	-0.9412756952720105	3.6679044821404996	-0.9571079873252477	-0.7549393864552767	3.8390948221984234	-1.21856489624538	-0.8840509954179853	3.9689751791338734	-1.282628905312551	-0.9740130949767013	3.54763749733609	-0.9501478384974035	-0.6755043381349374	4.326698937816554	-0.1631876922822914	-0.7570461470702902	3.684325504779458	-0.47056539277679144	-0.5672181378635583	3.326828674286779	-0.7163560677533988	-0.48287923710956376	3.2142181998005666	-0.8034014913213583	-0.44440355129052217	3.074503597959073	-0.7006188605245288	-0.33614722806230557	3.329204994666146	-0.7735977941245173	-0.5031546178448836	5.43580385737041	0.39353745717610017	-1.2648811688762573	5.8698643487993625	0.7031759083240772	-1.4682169028969154	5.673389798949331	0.5192610172518923	-1.4423738179923862	5.397565010525228	0.1948252930657994	-1.5024292695016352	5.130822132135993	-0.1068917513415151	-1.5015608524521078	5.229257562004208	-0.15722211327383018	-1.6523956234637522	5.16257113471261	0.36063930354968343	-0.8887165484385898	4.613228382092844	0.150464340205251	-0.5475567175142785	4.825574487491502	0.24950641488014663	-0.615798244207103
